#!OML:ASF H:\ManfredObstacles\Project 1\Capture day 2\Session 1\male.ASF
:FULLY-SPECIFIED
:DEGREES
465
root 1.32557 15.4746 -17.8965 -158.192 5.63555 178.686
lowerback 15.642 -2.99982 -3.90467
upperback 7.25761 -3.51264 -0.43611
thorax -0.816151 -1.42378 2.28632
lowerneck -32.67 4.80698 5.49508
upperneck 27.0875 5.41034 -3.04703
head 15.118 2.45096 -0.978835
rclavicle -8.74653e-015 1.98785e-014
rhumerus -64.7413 7.83528 -82.4798
rradius 61.7127
rwrist 11.6922
rhand -6.49909 -6.31285
rfingers 7.12502
rthumb 19.3525 -35.3699
lclavicle -8.74653e-015 1.98785e-014
lhumerus -14.0404 -24.5979 78.2731
lradius 87.0253
lwrist -27.8231
lhand -18.6557 9.31206
lfingers 7.12502
lthumb 7.63749 39.1542
rfemur -64.7973 4.1042 19.7289
rtibia 61.958
rfoot 0.667779 -16.6411
rtoes -26.3097
lfemur -22.2935 -0.0724874 -27.6836
ltibia 48.027
lfoot 6.80281 16.7737
ltoes -18.805
466
root 1.33372 15.5981 -18.1836 -158.247 5.68772 178.76
lowerback 14.9839 -3.19884 -3.66812
upperback 7.0656 -3.78588 -0.397123
thorax -0.671655 -1.58254 2.20818
lowerneck -32.5124 5.04167 5.73934
upperneck 27.2716 5.75454 -3.30358
head 15.2082 2.58715 -1.05041
rclavicle 4.6118e-014 5.56597e-015
rhumerus -65.3023 7.94604 -82.4006
rradius 62.6044
rwrist 11.4715
rhand -6.96827 -5.99383
rfingers 7.12502
rthumb 18.9013 -35.0955
lclavicle 4.6118e-014 5.56597e-015
lhumerus -15.8061 -24.8014 78.5885
lradius 87.687
lwrist -27.9906
lhand -18.7475 9.15063
lfingers 7.12502
lthumb 7.54891 38.9959
rfemur -63.7845 4.40278 19.5067
rtibia 58.2812
rfoot 1.61189 -15.5637
rtoes -26.2653
lfemur -20.1484 -0.435559 -27.6672
ltibia 45.424
lfoot 8.77782 15.1956
ltoes -18.0039
467
root 1.34343 15.7144 -18.4739 -158.32 5.72507 178.808
lowerback 14.3001 -3.38705 -3.46439
upperback 6.8823 -4.04787 -0.355446
thorax -0.501511 -1.73591 2.14364
lowerneck -32.3701 5.25294 5.96846
upperneck 27.4963 6.0705 -3.53558
head 15.3192 2.71436 -1.1152
rclavicle 2.62396e-014 1.74931e-014
rhumerus -65.7755 8.05636 -82.3225
rradius 63.5291
rwrist 11.296
rhand -7.52009 -5.73817
rfingers 7.12502
rthumb 18.3706 -34.8907
lclavicle 2.62396e-014 1.74931e-014
lhumerus -17.5952 -25.0076 78.9703
lradius 88.2481
lwrist -28.1419
lhand -18.8098 8.95397
lfingers 7.12502
lthumb 7.48877 38.8014
rfemur -62.6734 4.68949 19.271
rtibia 54.7924
rfoot 2.48212 -14.4931
rtoes -26.1595
lfemur -18.0792 -0.850936 -27.6682
ltibia 42.9609
lfoot 10.8604 13.5967
ltoes -17.0772
468
root 1.35511 15.8216 -18.767 -158.409 5.75799 178.834
lowerback 13.5789 -3.55522 -3.29216
upperback 6.70861 -4.28584 -0.318307
thorax -0.299374 -1.87749 2.08192
lowerneck -32.224 5.44936 6.21508
upperneck 27.7412 6.36584 -3.77629
head 15.4413 2.83438 -1.19123
rclavicle 7.31528e-014 -8.74653e-015
rhumerus -66.1675 8.14131 -82.2623
rradius 64.5033
rwrist 11.0737
rhand -8.11029 -5.60427
rfingers 7.12502
rthumb 17.8027 -34.8094
lclavicle 7.31528e-014 -8.74653e-015
lhumerus -19.3685 -25.2488 79.3906
lradius 88.6996
lwrist -28.2055
lhand -18.832 8.72431
lfingers 7.12502
lthumb 7.46731 38.5725
rfemur -61.4917 4.96356 19.0418
rtibia 51.5503
rfoot 3.2895 -13.4763
rtoes -26.0031
lfemur -16.1079 -1.30409 -27.6879
ltibia 40.6839
lfoot 13.0359 12.0414
ltoes -15.9624
469
root 1.36901 15.9192 -19.0625 -158.539 5.79966 178.828
lowerback 12.8397 -3.69772 -3.17018
upperback 6.55441 -4.49211 -0.289944
thorax -0.064028 -2.00286 2.0291
lowerneck -32.1018 5.61382 6.42916
upperneck 28.0219 6.62351 -3.97933
head 15.5818 2.94148 -1.25425
rclavicle 3.18055e-014 3.97569e-014
rhumerus -66.4735 8.20462 -82.2246
rradius 65.5031
rwrist 10.841
rhand -8.75159 -5.562
rfingers 7.12502
rthumb 17.1855 -34.822
lclavicle 3.18055e-014 3.97569e-014
lhumerus -21.1054 -25.5123 79.8566
lradius 89.0481
lwrist -28.178
lhand -18.8205 8.46801
lfingers 7.12502
lthumb 7.47837 38.3158
rfemur -60.237 5.23221 18.8133
rtibia 48.612
rfoot 3.98735 -12.555
rtoes -25.8304
lfemur -14.2171 -1.76283 -27.7418
ltibia 38.6417
lfoot 15.2481 10.6077
ltoes -14.6103
470
root 1.38496 16.0059 -19.3593 -158.672 5.85054 178.793
lowerback 12.0478 -3.77859 -3.05635
upperback 6.39704 -4.61788 -0.250578
thorax 0.194945 -2.08855 1.97626
lowerneck -31.9707 5.68075 6.48953
upperneck 28.3351 6.80353 -4.1174
head 15.7225 3.01111 -1.2824
rclavicle -6.2816e-014 -1.59028e-014
rhumerus -66.7455 8.16324 -82.1242
rradius 66.5532
rwrist 10.5837
rhand -9.423 -5.59734
rfingers 7.12502
rthumb 16.5392 -34.9125
lclavicle -6.2816e-014 -1.59028e-014
lhumerus -22.7867 -25.8797 80.4502
lradius 89.2824
lwrist -28.0986
lhand -18.7441 8.1931
lfingers 7.12502
lthumb 7.55215 38.0383
rfemur -58.9751 5.47915 18.5962
rtibia 46.0219
rfoot 4.59935 -11.7311
rtoes -25.6572
lfemur -12.477 -2.20878 -27.8334
ltibia 36.8896
lfoot 17.4793 9.32867
ltoes -12.9739
471
root 1.40298 16.0808 -19.6559 -158.802 5.90023 178.709
lowerback 11.2334 -3.84462 -3.00363
upperback 6.21845 -4.73267 -0.227539
thorax 0.449238 -2.16984 1.93586
lowerneck -31.8365 5.73805 6.56054
upperneck 28.6888 6.97019 -4.24449
head 15.8824 3.07952 -1.31064
rclavicle -2.8625e-014 1.98785e-014
rhumerus -66.9773 8.12456 -82.0639
rradius 67.6239
rwrist 10.3579
rhand -10.099 -5.65814
rfingers 7.12502
rthumb 15.8883 -35.0263
lclavicle -2.8625e-014 1.98785e-014
lhumerus -24.4766 -26.2437 81.0825
lradius 89.441
lwrist -27.9329
lhand -18.6168 7.90115
lfingers 7.12502
lthumb 7.67503 37.7419
rfemur -57.7288 5.68429 18.3798
rtibia 43.8128
rfoot 5.1809 -11.0123
rtoes -25.5676
lfemur -10.9198 -2.62304 -27.9764
ltibia 35.4687
lfoot 19.6981 8.21832
ltoes -10.9278
